# xmcd
#
# Track frame offsets: 
#        150
#        11868
#        18440
#        25963
#        34251
#        40302
#        45173
#        49662
#        56429
#        65365
#        73213
#        81218
#        86537
#        92111
#        98551
#        106723
#        112232
#        118148
#        128272
#        135343
#        144592
#        150287
#        158458
#        165736
#        174356
#        178922
#        184229
#        189551
#        195351
#        201475
#
# Disc length: 2772 seconds
#
# Revision: 0
# Processed by: cddbd v1.5.2PL0 Copyright (c) Steve Scherf et al.
# Submitted via: ExactAudioCopy v1.0b4
#
DISCID=8c0ad21e
DTITLE=Various Artist - Bluegrass classic jams - Power picks: 30 inst
DTITLE=rumental classics
DYEAR=2014
DGENRE=Bluegrass
TTITLE0=Vassar Clements - Snowflake breakdown
TTITLE1=Earl Taylor and Jim McCall - John Hardy
TTITLE2=Mac Martin - Wheel hoss
TTITLE3=Fiddling Buck Ryan -  Lee Highway blues
TTITLE4=Red Smiley - Dear old dixie
TTITLE5=Bob Ensign - Old Joe Clark
TTITLE6=Clarence "Tater" Tate - Big Sandy
TTITLE7=Raymond Fairchild - Foggy mountain top
TTITLE8=James Wall - East Virginia blues
TTITLE9=Curly Fox - Paddy on the turnpike
TTITLE10=Red Smiley - Silver bells
TTITLE11=Hylo Brown - Darlin' Nelly across the sea
TTITLE12=Mac Martin - Sugar in the gourd
TTITLE13=Raymond Fairchild - Cripple creek
TTITLE14=Earl Taylor and Jim McCall - Ragtime Annie
TTITLE15=DeWayne Wear - Cotton eyed Joe
TTITLE16=Don Reno and Bill Harrell - Limehouse blues
TTITLE17=Bob Ensign - Ragged but right
TTITLE18=Vassar Clements - Columbus rag
TTITLE19=Mac Martin - Dixie breakdown
TTITLE20=James Wall - Worried man blues
TTITLE21=Clarence "Tater" Tate - Whistilin' Rufus
TTITLE22=Don Reno and Bill Harrell - Dill pickle rag
TTITLE23=Bob Ensign - Kitty Clyde
TTITLE24=Curly Fox - Chinese breakdown
TTITLE25=Raymond Fairchild - Cumberland gap
TTITLE26=The Ritchey Brothers - Down yonder
TTITLE27=DeWayne Wear - Run boy run
TTITLE28=Jim Greer - Grandfather's clock
TTITLE29=Bob Ensign - Home sweet home
EXTD=
EXTT0=
EXTT1=
EXTT2=
EXTT3=
EXTT4=
EXTT5=
EXTT6=
EXTT7=
EXTT8=
EXTT9=
EXTT10=
EXTT11=
EXTT12=
EXTT13=
EXTT14=
EXTT15=
EXTT16=
EXTT17=
EXTT18=
EXTT19=
EXTT20=
EXTT21=
EXTT22=
EXTT23=
EXTT24=
EXTT25=
EXTT26=
EXTT27=
EXTT28=
EXTT29=
PLAYORDER=
